:SAMPLES-PER-SECOND 30
:FULLY-SPECIFIED
:DEGREES
733
root  16.0173 38.9195 7.62724 165.224 -85.3457 -172.253
RightUpLeg  4.06986 -7.47237 3.11596
RightLeg  17.0135 2.207 1.289
RightFoot  -13.4321 -0.222294 -7.20827
RightToes  2.21189e-009 0 -3.6325e-017
Spine  6.74221 0.671439 10.6585
Spine1  10.5746 2.35152 -2.80789
HEad  -1.60016 -29.9706 -3.30902
LeftShoulder1  0.00742506 3.48367 -30.5244
LeftArm  -12.5302 15.0212 -36.8943
LeftForeArm  43.0178 -77.4069 -58.8205
LeftHand  -0.0646822 0.490653 1.49418
RightShoulder  -0.790303 -5.73124 28.8585
RightArm  -6.07242 -13.9756 35.8123
RightForeArm  106.925 75.7998 129.199
RightHand  -0.346573 6.22114 -3.79926
LeftUpLeg  -19.3364 -5.28929 2.38982
LeftLeg  28.3388 -5.31484 -2.77619
LeftFoot  0.118872 0.321502 -3.19378
LeftToes  -3.01956e-010 3.07132e-011 1.04116e-011
734
root  14.6392 38.9291 7.38777 165.66 -84.9884 -172.418
RightUpLeg  7.40632 -7.40367 3.02947
RightLeg  14.5006 2.54749 1.33878
RightFoot  -14.4723 -0.293019 -7.14073
RightToes  2.21189e-009 0 -3.6325e-017
Spine  5.95873 0.842041 10.4245
Spine1  11.1945 2.5722 -3.8227
HEad  -1.97777 -29.6544 -2.80632
LeftShoulder1  0.00135563 3.50004 -30.0195
LeftArm  -13.356 15.2358 -36.9752
LeftForeArm  46.4957 -77.8139 -62.172
LeftHand  -0.0590723 0.84306 1.3951
RightShoulder  -0.772011 -5.66875 29.0179
RightArm  -5.66486 -13.1605 36.4597
RightForeArm  105.79 75.8819 128.62
RightHand  -0.411977 5.94024 -4.54201
LeftUpLeg  -18.3239 -2.90494 1.99537
LeftLeg  14.9447 -8.81917 -2.13747
LeftFoot  0.363546 0.49753 -4.89903
LeftToes  -3.01956e-010 3.07132e-011 1.04116e-011
735
root  13.244 38.8727 7.15568 165.464 -84.7009 -172.083
RightUpLeg  10.8239 -7.33699 2.95151
RightLeg  12.1867 2.9276 1.36047
RightFoot  -15.5054 -0.356737 -6.9142
RightToes  2.21189e-009 0 -3.6325e-017
Spine  5.23112 1.00409 10.0081
Spine1  11.8658 2.81937 -4.6854
HEad  -1.98035 -30.2022 -2.13412
LeftShoulder1  -0.00625539 3.52127 -29.7586
LeftArm  -13.8922 15.551 -36.9164
LeftForeArm  49.8106 -78.149 -65.5394
LeftHand  -0.0371333 1.36745 0.877379
RightShoulder  -0.737913 -5.57925 28.8978
RightArm  -5.50913 -12.8822 36.9039
RightForeArm  105.528 75.954 128.261
RightHand  -0.376259 6.29773 -4.0706
LeftUpLeg  -17.203 1.5763 0.765052
LeftLeg  3.70418 -12.6673 -0.891082
LeftFoot  -1.03658 0.64891 -7.14736
LeftToes  -3.01956e-010 3.07132e-011 1.04116e-011
736
root  11.8107 38.6676 6.94766 165.451 -84.8091 -172.479
RightUpLeg  14.2685 -7.65458 2.45938
RightLeg  11.3035 3.38647 1.54443
RightFoot  -17.2509 -0.454869 -6.56984
RightToes  2.21189e-009 0 -3.6325e-017
Spine  5.24976 0.901489 8.89693
Spine1  12.0935 2.6817 -4.76995
HEad  -3.427 -22.7699 -1.78624
LeftShoulder1  -0.055094 3.65652 -29.9018
LeftArm  -14.0609 15.6412 -36.4426
LeftForeArm  53.4201 -78.4474 -68.9755
LeftHand  -0.0469162 1.36879 1.15955
RightShoulder  -0.742318 -5.5774 29.14
RightArm  -5.14613 -12.445 36.7457
RightForeArm  104.166 76.2048 126.879
RightHand  -0.31632 6.55105 -3.41408
LeftUpLeg  -16.3666 2.40827 0.261606
LeftLeg  -2.3638 -8.07807 -0.653063
LeftFoot  -2.39848 0.688298 -8.56688
LeftToes  -3.01956e-010 3.07132e-011 1.04116e-011
737
root  10.3002 38.3542 6.79939 166.996 -85.3911 -174.37
RightUpLeg  17.0847 -8.2529 1.60548
RightLeg  11.9291 3.78597 1.68475
RightFoot  -19.567 -0.54539 -5.7368
RightToes  2.21189e-009 0 -3.6325e-017
Spine  4.88544 0.709281 7.66304
Spine1  12.6835 2.41849 -4.60301
HEad  -9.4575 3.60605 -2.543
LeftShoulder1  -0.103604 3.7901 -30.0508
LeftArm  -13.9928 15.1912 -36.1699
LeftForeArm  54.5778 -78.5295 -70.0515
LeftHand  -0.0514472 1.46167 1.3074
RightShoulder  -0.725737 -5.53733 29.0182
RightArm  -5.13087 -12.4934 37.0008
RightForeArm  102.833 76.3322 126
RightHand  -0.358856 6.22253 -3.91898
LeftUpLeg  -16.4237 1.68773 -0.849908
LeftLeg  -1.99989 -0.855269 -0.823565
LeftFoot  -2.25003 0.598524 -7.24265
LeftToes  -3.01956e-010 3.07132e-011 1.04116e-011
738
root  8.73062 38.0292 6.63266 166.695 -85.9624 -174.281
RightUpLeg  19.5519 -8.89844 0.921536
RightLeg  13.1506 4.329 1.83615
RightFoot  -21.2174 -0.541592 -4.60186
RightToes  2.21189e-009 0 -3.6325e-017
Spine  4.66735 0.73771 6.65927
Spine1  12.9057 2.44672 -4.61087
HEad  -8.51845 0.615997 -1.64943
LeftShoulder1  -0.0865248 3.74483 -29.7773
LeftArm  -13.5458 15.0132 -36.2502
LeftForeArm  55.7265 -78.6004 -70.8258
LeftHand  -0.0446825 1.3892 1.09222
RightShoulder  -0.799172 -5.71976 29.4362
RightArm  -5.14479 -13.5152 36.5368
RightForeArm  102.488 76.1882 126.569
RightHand  -0.410426 6.22567 -4.42409
LeftUpLeg  -17.3961 1.35165 -1.96116
LeftLeg  3.2003 1.67318 -0.838533
LeftFoot  0.519845 0.323714 -3.62215
LeftToes  -3.01956e-010 3.07132e-011 1.04116e-011
739
root  7.12993 37.8346 6.45203 178.196 -84.8155 173.614
RightUpLeg  21.992 -8.9619 -0.961378
RightLeg  15.144 6.46497 2.00176
RightFoot  -22.1006 -0.354015 -2.21619
RightToes  2.21189e-009 0 -3.6325e-017
Spine  4.89576 1.52475 4.74764
Spine1  13.3075 3.27848 -4.77339
HEad  -8.09492 -0.75679 -0.322891
LeftShoulder1  -0.17267 3.98211 -29.9448
LeftArm  -12.8525 15.0284 -35.8468
LeftForeArm  57.454 -78.7086 -72.3879
LeftHand  -0.0561889 1.18142 1.39607
RightShoulder  -0.830299 -5.78979 29.703
RightArm  -4.93523 -14.9404 35.7283
RightForeArm  102.866 76.0167 127.41
RightHand  -0.470738 6.96679 -4.76601
LeftUpLeg  -17.8528 2.27488 -3.38917
LeftLeg  8.39676 0.103259 -0.863193
LeftFoot  7.33182 -0.485277 2.78538
LeftToes  -3.01956e-010 3.07132e-011 1.04116e-011
740
root  5.49224 37.6262 6.27532 -163.996 -84.0961 154.382
RightUpLeg  23.6467 -8.07758 -3.75835
RightLeg  20.4343 7.45409 2.83602
RightFoot  -22.384 0.0594049 2.12802
RightToes  2.21189e-009 0 -3.6325e-017
Spine  6.4438 1.96615 0.933549
Spine1  12.6913 3.26063 -3.72669
HEad  -7.69258 0.0153503 0.267944
LeftShoulder1  -0.265763 4.23215 -30.359
LeftArm  -12.0892 15.4995 -35.0468
LeftForeArm  58.6121 -78.7784 -73.6071
LeftHand  -0.0607389 1.01233 1.47535
RightShoulder  -0.8513 -5.82678 30.0332
RightArm  -4.40697 -15.9756 35.0416
RightForeArm  101.329 76.3215 125.694
RightHand  -0.405968 7.00867 -4.14823
LeftUpLeg  -17.3456 3.07955 -5.77859
LeftLeg  14.308 -0.74441 -0.386309
LeftFoot  10.1299 -1.03035 5.17563
LeftToes  -3.01956e-010 3.07132e-011 1.04116e-011
741
root  3.94849 37.4877 6.17031 -146.694 -83.4744 136.747
RightUpLeg  21.3682 -7.54993 -6.82488
RightLeg  30.2512 8.33306 5.00085
RightFoot  -19.5277 0.453605 8.86326
RightToes  2.21189e-009 0 -3.6325e-017
Spine  6.97554 2.22015 -2.79766
Spine1  12.3342 2.84423 -2.55337
HEad  -7.60324 0.10878 0.277786
LeftShoulder1  -0.2742 4.24426 -30.9052
LeftArm  -11.453 15.7468 -34.676
LeftForeArm  55.7112 -78.6036 -71.0841
LeftHand  -0.0847342 1.22916 2.25558
RightShoulder  -0.866387 -5.86322 30.1122
RightArm  -4.09331 -16.8761 34.6226
RightForeArm  99.1599 76.67 123.498
RightHand  -0.397711 7.35655 -3.97484
LeftUpLeg  -17.6723 2.26255 -8.24669
LeftLeg  20.2966 -0.125259 0.337105
LeftFoot  6.5392 -1.1191 6.86046
LeftToes  -3.01956e-010 3.07132e-011 1.04116e-011
742
root  2.61175 37.4821 6.18949 -143.715 -82.7217 133.91
RightUpLeg  15.5861 -6.31586 -8.57809
RightLeg  42.8123 8.16719 7.75909
RightFoot  -10.5811 -0.154862 15.5087
RightToes  2.21189e-009 0 -3.6325e-017
Spine  7.73468 2.1749 -3.26385
Spine1  12.0987 2.807 -3.83647
HEad  -7.66176 0.78064 -0.372787
LeftShoulder1  -0.248911 4.17258 -31.0822
LeftArm  -10.9411 15.7092 -34.4414
LeftForeArm  52.4053 -78.3677 -67.9513
LeftHand  -0.0810514 1.92023 2.46064
RightShoulder  -0.846185 -5.81223 30.0408
RightArm  -3.85122 -17.3347 34.5769
RightForeArm  97.898 76.8593 122.196
RightHand  -0.417307 7.57108 -4.09542
LeftUpLeg  -17.3705 1.76038 -9.24862
LeftLeg  23.7209 1.02944 0.832914
LeftFoot  3.15741 -1.05563 8.11283
LeftToes  -3.01956e-010 3.07132e-011 1.04116e-011
743
root  1.34629 37.5676 6.20608 -143.3 -81.1449 133.325
RightUpLeg  8.18239 -3.74487 -10.2166
RightLeg  55.2461 7.06823 10.4291
RightFoot  2.78883 -1.73144 14.5692
RightToes  2.21189e-009 0 -3.6325e-017
Spine  8.93834 2.28348 -4.02798
Spine1  11.7531 2.94711 -5.02897
HEad  -8.14302 1.3526 -1.0616
LeftShoulder1  -0.203737 4.05515 -30.8264
LeftArm  -10.8772 16.0602 -34.4413
LeftForeArm  53.5643 -78.4186 -67.882
LeftHand  -0.0252377 1.40203 0.557244
RightShoulder  -0.819309 -5.74755 29.8851
RightArm  -3.56258 -16.8133 34.5509
RightForeArm  96.1574 77.0947 120.445
RightHand  -0.444828 7.34461 -4.40557
LeftUpLeg  -15.8054 2.28509 -10.5048
LeftLeg  25.2148 1.90683 1.33132
LeftFoot  0.135293 -0.821479 8.12953
LeftToes  -3.01956e-010 3.07132e-011 1.04116e-011
